<?xml version="1.0" standalone="no"?>
<!DOCTYPE svg PUBLIC "-//W3C//DTD SVG 20010904//EN"
 "http://www.w3.org/TR/2001/REC-SVG-20010904/DTD/svg10.dtd">
<svg version="1.0" xmlns="http://www.w3.org/2000/svg"
 width="512.000000pt" height="512.000000pt" viewBox="0 0 512.000000 512.000000"
 preserveAspectRatio="xMidYMid meet">

<g transform="translate(0.000000,512.000000) scale(0.100000,-0.100000)"
fill="#19975d" stroke="none">
<path d="M2288 4977 l142 -142 -996 -995 c-692 -692 -1009 -1015 -1040 -1062
-179 -268 -199 -613 -53 -926 125 -269 345 -473 619 -573 125 -45 207 -59 349
-59 196 0 356 48 510 152 61 42 503 480 1218 1210 627 640 626 639 739 654
258 32 545 -250 521 -513 -12 -124 27 -81 -976 -1086 l-926 -927 -152 152
-153 153 0 -508 0 -507 507 0 508 0 -153 153 -152 152 936 935 c514 514 955
963 980 997 197 272 213 657 41 987 -157 302 -458 524 -779 576 -110 18 -323
8 -413 -19 -103 -31 -221 -91 -295 -150 -36 -29 -362 -356 -725 -726 -700
-716 -1042 -1053 -1094 -1079 -55 -29 -136 -39 -210 -26 -239 41 -441 289
-417 511 12 121 -27 78 1025 1132 537 537 980 977 986 977 6 0 78 -67 160
-150 82 -82 153 -150 157 -150 5 0 8 225 8 500 l0 500 -507 0 -508 0 143 -143z"/>
</g>
</svg>
